<svg width="39" height="6" viewBox="0 0 39 6" fill="none" xmlns="http://www.w3.org/2000/svg">
<path d="M1.07031 2.72773C0.919943 2.72773 0.798044 2.84963 0.798044 3C0.798044 3.15037 0.919943 3.27227 1.07031 3.27227L1.07031 2.72773ZM38.3924 3.19253C38.4987 3.0862 38.4987 2.91381 38.3924 2.80748L36.6597 1.07477C36.5534 0.968445 36.381 0.968445 36.2747 1.07477C36.1683 1.1811 36.1683 1.35349 36.2747 1.45982L37.8148 3L36.2747 4.54019C36.1683 4.64651 36.1683 4.8189 36.2747 4.92523C36.381 5.03156 36.5534 5.03156 36.6597 4.92523L38.3924 3.19253ZM1.07031 3.27227L38.1999 3.27227L38.1999 2.72773L1.07031 2.72773L1.07031 3.27227Z" fill="#232334"/>
</svg>
