<svg width="74" height="17" viewBox="0 0 74 17" fill="none" xmlns="http://www.w3.org/2000/svg">
<path fill-rule="evenodd" clip-rule="evenodd" d="M9.40321 8.35507C9.57929 8.35507 9.72203 8.49782 9.72203 8.67389L9.72185 9.93134L17.6801 9.93162C17.8562 9.93162 17.9989 10.0744 17.9989 10.2504V15.1307C17.9989 15.3068 17.8562 15.4495 17.6801 15.4495H8.59569C8.41961 15.4495 8.27687 15.3068 8.27687 15.1307L8.27653 13.8727L0.318819 13.873C0.14274 13.873 0 13.7302 0 13.5542V8.67389C0 8.49782 0.14274 8.35507 0.318819 8.35507H9.40321ZM9.40321 0.026001C9.57929 0.026001 9.72203 0.168741 9.72203 0.34482L9.72185 1.60238L17.6801 1.60255C17.8562 1.60255 17.9989 1.74529 17.9989 1.92137V6.80164C17.9989 6.97772 17.8562 7.12046 17.6801 7.12046H8.59569C8.41961 7.12046 8.27687 6.97772 8.27687 6.80164L8.27653 5.54369L0.318819 5.54391C0.14274 5.54391 0 5.40117 0 5.22509V0.34482C0 0.168741 0.14274 0.026001 0.318819 0.026001H9.40321Z" fill="#A8E4D6"/>
<path d="M71.6931 6.29387C72.9051 6.29387 73.9224 5.25495 73.9224 4.06452C73.9224 2.85245 72.9051 1.85681 71.6931 1.85681C70.481 1.85681 69.4854 2.85245 69.4854 4.06452C69.4854 5.25495 70.481 6.29387 71.6931 6.29387Z" fill="#A8E4D6"/>
<path d="M29.5135 15.8687V7.88199H31.8511V5.11154H29.5135V4.28906C29.5135 3.09862 30.336 2.83889 30.9204 2.83889C31.4398 2.83889 31.7212 2.90383 31.8943 2.94711V0.263233C31.5913 0.111723 31.0069 0.0251465 30.336 0.0251465C27.717 0.0251465 26.2236 1.71339 26.2236 4.18083V5.11154H24.5137V7.88199H26.2236V15.8687H29.5135ZM29.5135 15.8687V7.88199H33.4527V15.8687H36.7643V0.1983H33.4527V5.11154H29.5135V4.18083C29.5135 3.09862 30.3576 2.83889 30.9204 2.83889C31.3965 2.83889 31.6995 2.90383 31.8511 2.94711V0.263233C31.548 0.111723 30.8771 0.0251465 30.336 0.0251465C27.717 0.0251465 26.2236 1.71339 26.2236 4.18083V5.11154H24.5137V7.88199H26.2236V15.8687H29.5135ZM43.5534 16.1934C46.7783 16.1934 49.2674 13.8125 49.2674 10.4793C49.2674 7.14609 46.7783 4.78687 43.5534 4.78687C40.35 4.78687 37.8393 7.14609 37.8393 10.4793C37.8393 13.8125 40.35 16.1934 43.5534 16.1934ZM43.5534 13.1632C42.3196 13.1632 41.1292 12.2758 41.1292 10.4793C41.1292 8.66119 42.3196 7.81706 43.5534 7.81706C44.8087 7.81706 45.9775 8.66119 45.9775 10.4793C45.9775 12.2974 44.8087 13.1632 43.5534 13.1632ZM53.4159 16.1717C54.8444 16.1717 55.8833 15.5657 56.4461 14.6566C56.4461 15.3925 56.5327 15.7821 56.5543 15.8687H59.5196L59.5078 15.8006C59.4726 15.5799 59.3897 14.9407 59.3897 14.2021V8.94256C59.3897 6.73485 58.1127 4.78687 54.628 4.78687C51.4679 4.78687 50.0394 6.82143 49.9095 8.35817L52.7666 8.94256C52.8315 8.14172 53.4592 7.36253 54.6063 7.36253C55.6453 7.36253 56.1864 7.90364 56.1864 8.53132C56.1864 8.89927 55.9916 9.18065 55.4072 9.26722L52.8748 9.65682C51.1 9.91655 49.6931 10.9988 49.6931 12.9035C49.6931 14.6133 51.0567 16.1717 53.4159 16.1717ZM54.2167 13.7909C53.3077 13.7909 52.9397 13.2498 52.9397 12.687C52.9397 11.9295 53.4592 11.6048 54.1518 11.4966L56.1864 11.1719V11.6481C56.1864 13.3147 55.1907 13.7909 54.2167 13.7909ZM65.2914 16.0635C66.3303 16.0635 66.8714 15.8254 67.0013 15.7605V13.0333C66.8065 13.0766 66.4818 13.1415 66.1355 13.1415C65.4212 13.1415 64.9451 12.9035 64.9451 12.016V7.99022H67.0445V5.11154H64.9451V1.97313H62.0014V3.35835C62.0014 4.35399 61.4603 5.11154 60.3348 5.11154H59.7937V7.99022H61.6984V12.6004C61.6984 14.7432 63.062 16.0635 65.2914 16.0635Z" fill="#A8E4D6"/>
</svg>
