<svg width="19" height="19" viewBox="0 0 19 19" fill="none" xmlns="http://www.w3.org/2000/svg">
<path d="M19 9.5C19 14.7468 14.7468 19 9.5 19C4.25323 19 0 14.7468 0 9.5C0 4.25323 4.25323 0 9.5 0C14.7468 0 19 4.25323 19 9.5Z" fill="white"/>
<path d="M11.9527 10.2017C11.6499 9.2708 11.3162 8.35104 10.9517 7.44258C13.1039 6.4328 15.0528 5.03728 16.702 3.32503C16.4428 3.02512 16.1652 2.74143 15.8708 2.47587C14.3286 4.08476 12.5052 5.3978 10.4903 6.35017C9.57441 4.24509 8.4965 2.21422 7.26624 0.276123C6.86528 0.3731 6.47128 0.496315 6.08642 0.644752C7.35611 2.6101 8.46432 4.67532 9.40017 6.81984C9.23448 6.88507 9.07242 6.95871 8.90441 7.01988C6.10222 8.04314 3.09216 8.36452 0.137032 7.95617C0.0729599 8.34669 0.0333862 8.74068 0.0183105 9.13599C0.884003 9.25659 1.7568 9.31834 2.63075 9.32066C4.9095 9.31791 7.17013 8.91652 9.31044 8.13432C9.497 8.06663 9.67632 7.9853 9.86027 7.91225C10.2024 8.76489 10.5162 9.62826 10.8021 10.5022C10.4291 10.6133 10.0574 10.7297 9.68936 10.8632C6.89021 11.8825 4.36272 13.5311 2.30184 15.6822C2.56103 15.9818 2.83862 16.2649 3.13318 16.53C5.07258 14.4984 7.45454 12.9414 10.0937 11.9801C10.4427 11.8529 10.7961 11.7426 11.1505 11.637C11.8097 13.875 12.2861 16.1628 12.5755 18.4781C12.9659 18.3437 13.3468 18.1839 13.7162 17.9995C13.4161 15.7457 12.9431 13.5182 12.3012 11.337C14.4521 10.845 16.6746 10.7475 18.8603 11.049C18.9244 10.6582 18.9641 10.2639 18.9792 9.86817C16.6362 9.551 14.255 9.66407 11.9527 10.2017Z" fill="#232334"/>
</svg>
