<svg width="22" height="22" viewBox="0 0 22 22" fill="none" xmlns="http://www.w3.org/2000/svg">
<g clip-path="url(#clip0_2_749)">
<path d="M21.9942 22.0001V21.9991H21.9997V13.9306C21.9997 9.98346 21.1499 6.94287 16.5354 6.94287C14.3171 6.94287 12.8284 8.16021 12.2207 9.31429H12.1565V7.31137H7.78125V21.9991H12.3371V14.7263C12.3371 12.8114 12.7001 10.9597 15.0715 10.9597C17.4081 10.9597 17.4429 13.145 17.4429 14.8491V22.0001H21.9942Z" fill="white"/>
<path d="M0.363281 7.3125H4.92461V22.0002H0.363281V7.3125Z" fill="white"/>
<path d="M2.64183 0C1.18342 0 0 1.18342 0 2.64183C0 4.10025 1.18342 5.30842 2.64183 5.30842C4.10025 5.30842 5.28367 4.10025 5.28367 2.64183C5.28275 1.18342 4.09933 0 2.64183 0V0Z" fill="white"/>
</g>
<defs>
<clipPath id="clip0_2_749">
<rect width="22" height="22" fill="white"/>
</clipPath>
</defs>
</svg>
