<svg width="33" height="37" viewBox="0 0 33 37" fill="none" xmlns="http://www.w3.org/2000/svg">
<path d="M23.207 36.7295L32.5267 34.4133C32.5267 34.4133 28.5141 7.28457 28.4886 7.09847C28.463 6.91237 28.3004 6.80907 28.1654 6.79787C28.0315 6.78657 25.4076 6.74667 25.4076 6.74667C25.4076 6.74667 23.8083 5.19337 23.207 4.60547V36.7295Z" fill="#6A8D48"/>
<path d="M22.1928 4.29547C22.1907 4.29647 21.7807 4.42327 21.0904 4.63697C20.9749 4.26277 20.8051 3.80257 20.5628 3.34037C19.7815 1.84947 18.6373 1.06107 17.2548 1.05907C17.2527 1.05907 17.2517 1.05907 17.2497 1.05907C17.1535 1.05907 17.0584 1.06827 16.9623 1.07637C16.9214 1.02737 16.8805 0.979273 16.8376 0.932273C16.2353 0.287973 15.4632 -0.0259263 14.5378 0.00167371C12.7524 0.0527737 10.9742 1.34227 9.5323 3.63287C8.5179 5.24437 7.7459 7.26907 7.5271 8.83667C5.4768 9.47167 4.0432 9.91547 4.0115 9.92567C2.9766 10.2509 2.9439 10.2826 2.8089 11.2582C2.7077 11.9954 0 32.9335 0 32.9335L22.4648 36.8183V4.24947C22.3543 4.25657 22.2551 4.27707 22.1928 4.29547ZM17.0053 5.90187C15.816 6.27007 14.5184 6.67187 13.2167 7.07477C13.5827 5.67287 14.2771 4.27707 15.1299 3.36187C15.4469 3.02137 15.8907 2.64197 16.4163 2.42517C16.9102 3.45597 17.0175 4.91517 17.0053 5.90187ZM14.5726 1.18987C14.9918 1.18067 15.3446 1.27277 15.6463 1.47107C15.1636 1.72167 14.6973 2.08157 14.2597 2.55097C13.1256 3.76777 12.2565 5.65648 11.9098 7.47867C10.829 7.81308 9.7716 8.14137 8.7981 8.44197C9.4127 5.57367 11.8168 1.26967 14.5726 1.18987ZM11.0989 17.5296C11.2196 19.4407 16.2475 19.858 16.5298 24.3348C16.7517 27.8565 14.6615 30.2657 11.6501 30.4559C8.0353 30.6839 6.0454 28.5508 6.0454 28.5508L6.8113 25.2919C6.8113 25.2919 8.8145 26.8032 10.4179 26.702C11.465 26.6355 11.8393 25.7837 11.8014 25.1814C11.6439 22.6884 7.5496 22.8357 7.2909 18.7393C7.0731 15.2922 9.337 11.7991 14.3323 11.4841C16.2567 11.3625 17.2425 11.8543 17.2425 11.8543L16.1003 16.1276C16.1003 16.1276 14.8262 15.5478 13.3158 15.6429C11.0999 15.783 11.0764 17.1798 11.0989 17.5296ZM18.1925 5.53477C18.1792 4.63087 18.0718 3.37307 17.6505 2.28607C19.0054 2.54277 19.6721 4.07557 19.9544 4.98977C19.4318 5.15027 18.8367 5.33437 18.1925 5.53477Z" fill="#9EBE59"/>
</svg>
