<svg width="22" height="22" viewBox="0 0 22 22" fill="none" xmlns="http://www.w3.org/2000/svg">
<g clip-path="url(#clip0_2_747)">
<path d="M7.28067 19.417C7.28067 20.0499 6.80626 20.3112 6.28086 20.0499L0.609837 17.2153C0.43865 17.1343 0.29478 16.9986 0.177317 16.8083C0.0598534 16.618 -0.000244141 16.4286 -0.000244141 16.2419V2.37666C-0.000244141 1.85946 0.31026 1.62544 1.01231 1.9751L7.24424 5.08925C7.33439 5.17939 7.26792 4.5602 7.28067 19.417ZM8.06102 6.3777L14.5734 16.9112L8.06102 13.6759V6.3777ZM21.8534 6.59715V19.417C21.8534 19.6201 21.797 19.784 21.6822 19.9097C21.5684 20.0353 21.4136 20.0982 21.2187 20.0982C21.0239 20.0982 20.8327 20.0453 20.646 19.9397L15.2682 17.2636L21.8534 6.59715ZM21.817 5.13751C21.817 5.16209 20.7744 6.86303 18.6892 10.2394C16.604 13.6158 15.382 15.5936 15.0241 16.169L10.2682 8.45744L14.2192 2.04795C14.4341 1.69464 14.8748 1.63273 15.1707 1.78024L21.7687 5.06466C21.8006 5.08014 21.817 5.10473 21.817 5.13751Z" fill="white"/>
</g>
<defs>
<clipPath id="clip0_2_747">
<rect width="21.8537" height="21.8537" fill="white"/>
</clipPath>
</defs>
</svg>
