<svg width="21" height="17" viewBox="0 0 21 17" fill="none" xmlns="http://www.w3.org/2000/svg">
<path d="M18.6503 4.21177C19.4956 3.61158 20.2066 2.86241 20.7861 1.99979V1.99893C20.0126 2.33757 19.1899 2.56275 18.3307 2.67187C19.2141 2.14443 19.8888 1.31558 20.2058 0.316987C19.3821 0.808058 18.4727 1.15449 17.5036 1.3485C16.7215 0.515321 15.6069 0 14.3909 0C12.0317 0 10.1323 1.91492 10.1323 4.26201C10.1323 4.59978 10.1609 4.92456 10.2311 5.23376C6.68878 5.06054 3.55355 3.36301 1.44723 0.776013C1.08001 1.41432 0.863487 2.14443 0.863487 2.92997C0.863487 4.40578 1.62304 5.71357 2.75675 6.47139C2.07168 6.4584 1.40046 6.2592 0.831442 5.94654V5.99331C0.831442 8.06412 2.30812 9.78417 4.24555 10.1808C3.89825 10.2761 3.52064 10.3211 3.1283 10.3211C2.85548 10.3211 2.58007 10.3056 2.32198 10.2484C2.87367 11.9355 4.44129 13.1766 6.30337 13.2173C4.85354 14.351 3.01225 15.0344 1.01938 15.0344C0.67035 15.0344 0.335175 15.0188 0 14.9764C1.88807 16.1932 4.1243 16.8887 6.53721 16.8887C14.0574 16.8887 18.9586 10.6147 18.6503 4.21177Z" fill="white"/>
</svg>
