<svg width="38" height="6" viewBox="0 0 38 6" fill="none" xmlns="http://www.w3.org/2000/svg">
<path d="M0.859375 2.48407C0.672597 2.48407 0.521183 2.63549 0.521183 2.82227C0.521183 3.00904 0.672597 3.16046 0.859375 3.16046L0.859375 2.48407ZM37.5803 3.06141C37.7123 2.92933 37.7123 2.7152 37.5803 2.58313L35.428 0.430892C35.2959 0.29882 35.0818 0.29882 34.9497 0.430892C34.8177 0.562964 34.8177 0.777095 34.9497 0.909167L36.8628 2.82227L34.9497 4.73537C34.8177 4.86744 34.8177 5.08157 34.9497 5.21364C35.0818 5.34572 35.2959 5.34572 35.428 5.21364L37.5803 3.06141ZM0.859375 3.16046L37.3411 3.16046L37.3411 2.48408L0.859375 2.48407L0.859375 3.16046Z" fill="white"/>
</svg>
